<svg width="130" height="150" viewBox="0 0 130 150" fill="none" xmlns="http://www.w3.org/2000/svg">
<path fill-rule="evenodd" clip-rule="evenodd" d="M64.6157 0L45.8155 10.151L18.7212 13.6648L20.775 23.8938L0 48.9589H13.1068L0 101.353L16.7464 97.5273L33.7297 135.476L45.8155 129.698L64.6157 150L83.3368 129.698L95.7386 135.476L112.485 97.5273L129.31 101.353L116.277 48.9589H129.31L108.693 23.8938L110.747 13.6648L83.3368 10.151L64.6157 0ZM29.3876 56.2267L45.3488 79.0746L42.7137 83.9122L51.146 98.2758L64.5473 94.0337L77.9487 98.2758L86.381 83.9122L83.7459 79.0746L99.7071 56.2267L83.2942 36.2069H45.8005L29.3876 56.2267ZM50.3138 54.3654L54.6805 62.1054L43.7637 59.7239L38.2676 52.6537L50.3138 54.3654ZM78.7729 54.3654L74.4061 62.1054L85.323 59.7239L90.819 52.6537L78.7729 54.3654ZM54.6805 79.0739L64.5433 85.9209L74.4061 79.0739L64.5433 80.7857L54.6805 79.0739Z" fill="#61B8FF"/>
</svg>
