<svg width="120" height="120" viewBox="0 0 120 120" fill="none" xmlns="http://www.w3.org/2000/svg">
<path d="M0 48C0 25.3726 0 14.0589 7.02944 7.02944C14.0589 0 25.3726 0 48 0H72C94.6274 0 105.941 0 112.971 7.02944C120 14.0589 120 25.3726 120 48V72C120 94.6274 120 105.941 112.971 112.971C105.941 120 94.6274 120 72 120H48C25.3726 120 14.0589 120 7.02944 112.971C0 105.941 0 94.6274 0 72V48Z" fill="#0EA5E9"/>
<path d="M76.1265 30.0024C74.339 41.2689 69.8138 51.6203 63.253 60.3572C69.8138 69.0941 74.339 79.448 76.1265 90.712H90.0002C88.5637 79.7739 84.9787 69.5103 79.6864 60.3597C84.9812 51.2092 88.5637 40.943 90.0002 30.005H76.1265V30.0024Z" fill="white"/>
<path d="M48.0729 90.7095H62.1748C59.7756 78.7211 53.4755 68.144 44.6508 60.3548C53.473 52.568 59.7731 41.9885 62.1748 30H48.0729C45.3052 40.1709 38.7444 48.7749 29.9999 54.1976V66.512C38.7444 71.9346 45.3077 80.5386 48.0729 90.7095Z" fill="white"/>
</svg>
